<?xml version="1.0" encoding="utf-8"?>
<!-- Generator: Adobe Illustrator 16.0.0, SVG Export Plug-In . SVG Version: 6.00 Build 0)  -->
<!DOCTYPE svg PUBLIC "-//W3C//DTD SVG 1.1//EN" "http://www.w3.org/Graphics/SVG/1.1/DTD/svg11.dtd">
<svg version="1.1" id="Layer_1" xmlns="http://www.w3.org/2000/svg" xmlns:xlink="http://www.w3.org/1999/xlink" x="0px" y="0px"
	 width="750px" height="500px" viewBox="0 0 750 500" enable-background="new 0 0 750 500" xml:space="preserve">
<path fill="#F2E45F" d="M362.19,247.937c0,11.424-9.259,20.689-20.688,20.689c-11.426,0-20.688-9.266-20.688-20.689
	c0-11.426,9.262-20.69,20.688-20.69C352.928,227.246,362.19,236.511,362.19,247.937"/>
<path fill="#F2E45F" d="M473.069,247.937c0,11.424-9.262,20.689-20.689,20.689c-11.424,0-20.686-9.266-20.686-20.689
	c0-11.426,9.262-20.69,20.686-20.69C463.808,227.246,473.069,236.511,473.069,247.937"/>
<path d="M396.276,342.858h-1.721v-0.018c-28.095-0.594-62.752-15.33-78.372-47.418c-19.139-39.305-18.784-100.379-18.593-133.19
	c0.018-2.88,0.032-5.53,0.032-7.906c0-53.823,43.325-97.734,96.93-98.684l0.006-0.015l1.727,0.089
	c17.255,1.705,43.808,27.799,58.401,43.56c15.488,16.731,38.528,45.196,38.528,55.05c0,2.375,0.017,5.025,0.028,7.906
	c0.191,32.811,0.547,93.885-18.59,133.19c-15.625,32.084-50.282,46.824-78.374,47.418v0.018H396.276z M394.981,63.869
	c-49.265,0.718-89.125,41.028-89.125,90.458c0,2.391-0.018,5.054-0.034,7.956c-0.187,32.138-0.532,91.96,17.763,129.537
	c16.196,33.27,52.338,42.523,71.837,42.801c19.489-0.277,55.634-9.531,71.831-42.801c18.295-37.578,17.946-97.399,17.758-129.537
	c-0.015-2.901-0.031-5.564-0.031-7.956c-0.092-4.376-14.008-25.359-36.462-49.591C425.489,79.89,405.069,64.315,394.981,63.869"/>
<path d="M312.576,284.632h-0.005c-16.552-0.018-33.174-7.258-44.466-19.359c-11.288-12.1-17.357-29.183-16.228-45.697
	c0.483-7.064,2.539-17.043,9.594-24.458c7.129-7.493,18.023-10.072,26.493-6.263c5.403,2.427,16.8,15.997,16.906,16.128
	c1.427,1.773,1.147,4.365-0.625,5.787c-1.767,1.43-4.357,1.148-5.786-0.625c-3.41-4.239-11.709-12.813-13.867-13.785
	c-5.251-2.356-12.47-0.494-17.158,4.433c-5.363,5.637-6.952,13.631-7.347,19.346c-0.975,14.282,4.271,29.058,14.036,39.522
	c9.765,10.467,24.141,16.727,38.46,16.74c2.27,0.002,4.111,1.848,4.108,4.123C316.687,282.79,314.846,284.632,312.576,284.632"/>
<path d="M305.662,246.364c-1.396,0-2.756-0.709-3.528-1.991c-4.828-8.014-6.712-9.24-14.627-14.416
	c-6.94-4.534-20.499-9.18-29.404-3.391c-1.904,1.235-4.454,0.701-5.694-1.206c-1.238-1.905-0.695-4.456,1.207-5.693
	c11.431-7.435,27.915-3.449,38.397,3.402c8.824,5.765,11.617,7.838,17.171,17.052c1.172,1.947,0.546,4.477-1.401,5.65
	C307.116,246.175,306.384,246.364,305.662,246.364"/>
<path d="M295.205,269.981c-1.469,0-2.887-0.789-3.634-2.176c-3.23-6.043-3.856-13.527-1.669-20.022
	c2.187-6.494,7.209-12.077,13.441-14.934c2.062-0.945,4.508-0.042,5.458,2.025c0.949,2.066,0.04,4.507-2.027,5.457
	c-4.203,1.928-7.596,5.696-9.07,10.078c-1.475,4.381-1.055,9.432,1.129,13.512c1.072,2.006,0.317,4.498-1.689,5.57
	C296.525,269.823,295.862,269.981,295.205,269.981"/>
<path d="M478.72,284.632c-2.271,0-4.111-1.842-4.115-4.109c-0.002-2.275,1.839-4.121,4.109-4.123
	c14.318-0.014,28.693-6.273,38.459-16.74c9.765-10.469,15.014-25.244,14.035-39.522c-0.395-5.714-1.982-13.708-7.346-19.346
	c-4.686-4.927-11.903-6.792-17.158-4.433c-2.146,0.969-10.451,9.545-13.867,13.788c-1.423,1.771-4.013,2.045-5.785,0.623
	c-1.767-1.425-2.053-4.016-0.626-5.787c0.108-0.132,11.509-13.702,16.905-16.128c8.468-3.809,19.365-1.229,26.494,6.263
	c7.055,7.415,9.11,17.395,9.594,24.458c1.132,16.511-4.938,33.598-16.231,45.697c-11.286,12.105-27.911,19.342-44.464,19.359H478.72
	z"/>
<path d="M485.634,246.364c-0.723,0-1.455-0.189-2.127-0.592c-1.943-1.174-2.572-3.703-1.397-5.65
	c5.552-9.212,8.345-11.285,17.169-17.052c10.479-6.851,26.971-10.832,38.396-3.402c1.9,1.238,2.441,3.788,1.207,5.693
	c-1.241,1.907-3.791,2.444-5.695,1.206c-8.912-5.792-22.463-1.144-29.409,3.394c-7.913,5.172-9.794,6.399-14.624,14.413
	C488.387,245.655,487.028,246.364,485.634,246.364"/>
<path d="M496.087,269.981c-0.654,0-1.32-0.158-1.938-0.49c-2.004-1.072-2.756-3.568-1.684-5.57c2.184-4.08,2.604-9.131,1.129-13.512
	c-1.478-4.385-4.867-8.15-9.072-10.078c-2.062-0.949-2.977-3.39-2.025-5.457c0.947-2.067,3.395-2.971,5.458-2.025
	c6.226,2.854,11.255,8.44,13.44,14.934c2.185,6.495,1.562,13.978-1.672,20.022C498.978,269.192,497.558,269.981,496.087,269.981"/>
<path d="M569.651,496.257H221.158l0.332-4.42c0.409-5.477,4.514-53.867,21.871-67.537c15.442-12.166,37.611-16.551,50.853-19.164
	c3.627-0.721,6.76-1.338,8.673-1.91c57.323-17.064,48.522-72.512,48.122-74.867l8.11-1.393c0.108,0.65,10.354,65.021-53.885,84.15
	c-2.284,0.68-5.437,1.303-9.425,2.092c-12.518,2.477-33.468,6.615-47.359,17.559c-11.166,8.793-16.651,41.01-18.349,57.26h330.604
	c-1.699-16.25-7.182-48.467-18.35-57.26c-13.891-10.943-34.841-15.082-47.361-17.559c-3.985-0.789-7.139-1.408-9.422-2.092
	c-64.244-19.129-54-83.5-53.885-84.15l8.112,1.387c-0.403,2.354-9.044,57.855,48.116,74.873c1.915,0.572,5.051,1.189,8.674,1.91
	c13.242,2.613,35.414,6.998,50.854,19.164c17.363,13.67,21.463,62.061,21.875,67.537L569.651,496.257z"/>
<path d="M390.259,184.128c0.184,10.731,1.502,23.945,12.741,28.915c5.792,2.561,16.308-2.501,16.466,4.623
	c0.172,7.798-16.82,20.565-22.101,24.364c-4.257,3.067-0.154,10.208,4.153,7.106c9.423-6.781,28.664-22.589,28.418-36.071
	c-0.077-4.33-2.453-6.589-6.274-7.591c-4.328-1.137-8.613,1.458-12.808,0.793c-12.374-1.964-12.209-12.824-12.369-22.138
	C398.397,178.84,390.167,178.821,390.259,184.128"/>
<path d="M370.681,269.427c16.939,11.566,37.584,10.213,53.264-2.752c4.086-3.381-1.766-9.172-5.816-5.822
	c-12.916,10.682-29.581,10.826-43.297,1.467C370.446,259.325,366.324,266.456,370.681,269.427"/>
<path d="M352.122,186.859v35.889c0,5.294,8.23,5.307,8.23,0v-35.889C360.352,181.564,352.122,181.555,352.122,186.859"/>
<path d="M432.729,186.859v35.889c0,5.294,8.232,5.307,8.232,0v-35.889C440.962,181.564,432.729,181.555,432.729,186.859"/>
<path d="M553.946,84.301c-2.919-3.937-8.723-4.068-13.567-3.333c-8.787,1.328-17.329,4.255-25.084,8.595
	c9.351-7.29,18.79-14.664,26.288-23.845c3.762-4.611,7.129-10.015,7.191-15.968c0.063-5.952-4.371-12.259-10.319-12.306
	c-2.858-0.023-5.528,1.324-8.062,2.637c-14.855,7.689-29.709,15.376-44.571,23.066c19.56-9.981,41.216-22.997,45.081-44.607
	c0.854-4.771-0.378-11.141-5.157-11.975c-1.718-0.299-3.462,0.263-5.103,0.839c-10.214,3.581-20.07,8.1-30.219,11.853
	c-18.255,6.746-27.684-3.631-47.076-2.05c-23.4,1.905-47.141-0.031-70.241,4.151c-26.825,4.856-52.018,18.193-71.268,37.475
	c-4.811-8.136-11.554-15.125-19.587-20.104c-2.164-1.341-4.871-2.559-7.149-1.428c-2.69,1.334-3.016,5.017-2.662,7.997
	c1.072,8.975,5.083,17.572,11.271,24.159c-8.702-3.858-17.863-6.687-27.225-8.407c-0.92-0.17-1.887-0.325-2.765-0.012
	c-1.598,0.564-2.324,2.539-2.035,4.207c0.294,1.668,1.349,3.089,2.396,4.419c6.846,8.697,14.859,16.446,23.684,23.122
	c-11.006,30.124-11.609,63.996-1.449,94.433l23.689,13.829c30.484-21.029,58.003-46.321,81.625-74.85
	c8.342,16.738,22.601,30.455,39.666,38.109c1.201,0.539,2.744,0.999,3.713,0.111c0.58-0.536,0.727-1.385,0.835-2.168
	c1.515-11.01,2.196-22.133,2.038-33.249c11.967,14.891,26.648,27.593,43.1,37.294c1.646,0.969,3.611,1.935,5.374,1.197
	c0.718-0.298,1.27-0.846,1.727-1.482c-0.648,14.358-0.383,28.755,0.827,43.078c0.266,3.131,0.942,6.813,3.801,8.134
	c4.045,1.868,8.041-2.6,10.174-6.513c15.23-27.954,14.174-44.81,15.608-76.608c19.158-4.687,36.075-18.138,44.691-35.911
	C555.313,93.794,556.851,88.225,553.946,84.301"/>
<path d="M344.533,163.858c7.999-7.857,19.081-9.619,29.112-4.485c4.706,2.41,8.88-4.691,4.159-7.106
	c-13.358-6.835-28.349-4.777-39.091,5.771C334.928,161.752,340.748,167.573,344.533,163.858"/>
<path d="M425.046,162.983c9.062-5.703,19.787-9.345,29.309-2.588c4.331,3.072,8.445-4.063,4.154-7.106
	c-11.857-8.413-26.211-4.591-37.62,2.587C416.418,158.688,420.54,165.816,425.046,162.983"/>
<path d="M334.062,253.567c5.294,0,5.303-8.23,0-8.23C328.765,245.337,328.756,253.567,334.062,253.567"/>
<path d="M341.482,241.198c5.294,0,5.303-8.232,0-8.232C336.186,232.966,336.177,241.198,341.482,241.198"/>
<path d="M346.016,252.331c5.294,0,5.306-8.232,0-8.232C340.719,244.099,340.71,252.331,346.016,252.331"/>
<path d="M442.9,253.567c5.297,0,5.306-8.23,0-8.23C437.604,245.337,437.595,253.567,442.9,253.567"/>
<path d="M452.38,242.845c5.297,0,5.306-8.23,0-8.23C447.085,234.617,447.077,242.845,452.38,242.845"/>
<path d="M460.212,257.276c5.301,0,5.309-8.23,0-8.23C454.918,249.046,454.909,257.276,460.212,257.276"/>
<path fill="#EBA179" d="M544.901,427.53c-18.916-14.893-48.805-17.574-58.155-20.359c-8.53-2.539-15.632-5.93-21.611-9.84
	c-5.663,8.697-12.243,16.785-19.685,24.012c-15.867,15.408-37.748,27.398-59.431,23.053c-16.763-3.355-30.15-15.74-41.473-28.541
	c-5.74-6.494-11.297-13.297-17.294-19.57c-6.283,4.363-13.907,8.115-23.192,10.887c-9.354,2.785-39.246,5.467-58.156,20.359
	c-16.437,12.943-20.316,64.609-20.316,64.609h169.813h169.808C565.212,492.14,561.336,440.474,544.901,427.53"/>
<path fill="#EBA179" d="M570.464,497.017H220.34l0.395-5.236c0.415-5.506,4.548-54.211,22.157-68.074
	c15.585-12.281,37.865-16.684,51.174-19.318c3.61-0.709,6.724-1.328,8.607-1.889c8.233-2.447,15.568-5.891,21.803-10.217
	l3.422-2.371l2.878,3.004c4.065,4.254,7.95,8.764,11.706,13.125c1.904,2.215,3.799,4.416,5.717,6.58
	c9.622,10.883,22.727,23.777,38.779,26.994c2.665,0.537,5.426,0.803,8.199,0.803c20.564,0,38.197-14.139,46.881-22.572
	c7.044-6.844,13.436-14.643,18.99-23.178l2.664-4.09l4.085,2.672c5.94,3.889,12.78,7,20.337,9.244
	c1.881,0.563,4.996,1.18,8.604,1.891c13.313,2.633,35.588,7.035,51.172,19.322c17.612,13.861,21.742,62.568,22.157,68.074
	L570.464,497.017z M230.94,487.269h328.929c-1.78-16.387-7.204-47.418-17.983-55.916c-13.744-10.82-34.586-14.941-47.039-17.4
	c-4.008-0.795-7.169-1.424-9.49-2.119c-6.783-2.016-13.087-4.676-18.787-7.924c-5.305,7.625-11.254,14.648-17.723,20.928
	c-9.739,9.457-29.664,25.328-53.668,25.328c-3.416,0-6.818-0.338-10.113-1.002c-18.899-3.783-33.532-18.066-44.166-30.084
	c-1.947-2.201-3.873-4.441-5.8-6.684c-2.804-3.25-5.677-6.592-8.61-9.799c-6.252,3.84-13.31,6.936-21.037,9.234
	c-2.321,0.691-5.488,1.32-9.497,2.115c-12.452,2.459-33.289,6.58-47.036,17.402C238.138,439.851,232.724,470.884,230.94,487.269"/>
<path fill="#F2E45F" d="M359.263,245.01c0,11.425-9.259,20.688-20.691,20.688c-11.425,0-20.688-9.264-20.688-20.688
	c0-11.426,9.262-20.691,20.688-20.691C350.001,224.319,359.263,233.583,359.263,245.01"/>
<path fill="#F2E45F" d="M470.144,245.01c0,11.425-9.262,20.688-20.691,20.688c-11.423,0-20.685-9.264-20.685-20.688
	c0-11.426,9.262-20.691,20.685-20.691C460.882,224.319,470.144,233.583,470.144,245.01"/>
<path d="M393.349,339.931h-1.721v-0.018c-28.094-0.594-62.751-15.33-78.372-47.418c-19.138-39.305-18.784-100.378-18.592-133.19
	c0.017-2.88,0.031-5.53,0.031-7.905c0-53.823,43.325-97.735,96.93-98.684l0.006-0.014l1.727,0.088
	c17.254,1.706,43.808,27.798,58.4,43.56c15.488,16.731,38.529,45.196,38.529,55.05c0,2.375,0.017,5.025,0.028,7.905
	c0.191,32.812,0.546,93.885-18.59,133.19c-15.625,32.086-50.283,46.824-78.374,47.418v0.018H393.349z M392.054,60.942
	c-49.265,0.717-89.125,41.028-89.125,90.458c0,2.391-0.017,5.054-0.034,7.956c-0.186,32.138-0.532,91.962,17.764,129.538
	c16.197,33.268,52.338,42.521,71.837,42.799c19.489-0.277,55.633-9.531,71.83-42.799c18.296-37.576,17.947-97.4,17.758-129.538
	c-0.014-2.902-0.031-5.564-0.031-7.956c-0.092-4.377-14.007-25.359-36.461-49.591C422.562,76.963,402.143,61.388,392.054,60.942"/>
<path d="M309.649,281.704h-0.006c-16.551-0.018-33.174-7.258-44.465-19.357c-11.289-12.102-17.357-29.185-16.228-45.699
	c0.482-7.063,2.538-17.043,9.593-24.458c7.129-7.493,18.023-10.072,26.494-6.263c5.403,2.427,16.8,15.997,16.906,16.128
	c1.426,1.774,1.146,4.365-0.626,5.787c-1.767,1.429-4.356,1.147-5.786-0.626c-3.411-4.24-11.709-12.813-13.868-13.784
	c-5.251-2.357-12.469-0.495-17.157,4.432c-5.363,5.637-6.952,13.631-7.347,19.346c-0.975,14.281,4.271,29.057,14.036,39.522
	c9.765,10.467,24.141,16.727,38.459,16.74c2.27,0.004,4.11,1.848,4.108,4.123C313.76,279.862,311.919,281.704,309.649,281.704"/>
<path d="M302.734,243.438c-1.395,0-2.756-0.709-3.527-1.991c-4.828-8.014-6.712-9.241-14.627-14.416
	c-6.941-4.534-20.5-9.181-29.404-3.39c-1.904,1.234-4.454,0.7-5.694-1.207c-1.238-1.905-0.694-4.455,1.206-5.693
	c11.432-7.436,27.915-3.449,38.397,3.401c8.825,5.766,11.618,7.838,17.172,17.053c1.172,1.946,0.546,4.477-1.401,5.649
	C304.189,243.247,303.458,243.438,302.734,243.438"/>
<path d="M292.277,267.052c-1.47,0-2.887-0.785-3.633-2.174c-3.23-6.041-3.856-13.525-1.669-20.021
	c2.187-6.495,7.209-12.078,13.441-14.935c2.061-0.944,4.508-0.041,5.457,2.025c0.949,2.067,0.041,4.508-2.027,5.457
	c-4.202,1.927-7.595,5.696-9.07,10.079c-1.475,4.382-1.055,9.431,1.129,13.511c1.072,2.006,0.317,4.5-1.689,5.57
	C293.598,266.896,292.935,267.052,292.277,267.052"/>
<path d="M475.792,281.704c-2.27,0-4.111-1.842-4.113-4.109c-0.004-2.275,1.838-4.119,4.107-4.123
	c14.318-0.014,28.695-6.273,38.459-16.74c9.766-10.467,15.014-25.244,14.036-39.522c-0.394-5.714-1.983-13.708-7.347-19.346
	c-4.686-4.927-11.903-6.792-17.157-4.432c-2.146,0.969-10.45,9.544-13.866,13.787c-1.424,1.771-4.014,2.045-5.787,0.623
	c-1.766-1.425-2.052-4.016-0.625-5.787c0.108-0.132,11.508-13.701,16.905-16.128c8.467-3.809,19.364-1.229,26.493,6.263
	c7.056,7.416,9.111,17.395,9.594,24.458c1.133,16.511-4.937,33.593-16.23,45.699c-11.287,12.104-27.912,19.34-44.463,19.357H475.792
	z"/>
<path d="M482.706,243.438c-0.723,0-1.455-0.19-2.127-0.593c-1.943-1.173-2.572-3.703-1.397-5.649
	c5.552-9.213,8.345-11.286,17.169-17.053c10.479-6.85,26.971-10.831,38.396-3.401c1.902,1.238,2.441,3.788,1.207,5.693
	c-1.24,1.907-3.791,2.444-5.694,1.207c-8.913-5.793-22.464-1.144-29.409,3.393c-7.913,5.172-9.794,6.399-14.625,14.413
	C485.46,242.729,484.102,243.438,482.706,243.438"/>
<path d="M493.161,267.052c-0.655,0-1.321-0.156-1.938-0.488c-2.005-1.07-2.756-3.566-1.685-5.57c2.185-4.08,2.605-9.129,1.13-13.511
	c-1.478-4.386-4.868-8.151-9.073-10.079c-2.061-0.949-2.977-3.39-2.023-5.457c0.945-2.066,3.393-2.97,5.457-2.025
	c6.226,2.854,11.254,8.44,13.441,14.935c2.184,6.496,1.561,13.977-1.674,20.021C496.051,266.267,494.63,267.052,493.161,267.052"/>
<path d="M566.724,493.329H218.23l0.332-4.418c0.409-5.479,4.514-53.869,21.872-67.539c15.442-12.166,37.611-16.551,50.852-19.164
	c3.628-0.721,6.761-1.338,8.673-1.908c57.324-17.066,48.522-72.512,48.122-74.869l8.11-1.391
	c0.109,0.648,10.354,65.018-53.884,84.148c-2.285,0.682-5.438,1.305-9.425,2.092c-12.518,2.477-33.469,6.615-47.358,17.559
	c-11.166,8.793-16.651,41.01-18.35,57.26h330.604c-1.697-16.25-7.181-48.467-18.35-57.26c-13.89-10.943-34.84-15.082-47.361-17.559
	c-3.984-0.787-7.138-1.408-9.422-2.092c-64.244-19.131-53.999-83.5-53.885-84.148l8.113,1.387
	c-0.404,2.352-9.045,57.855,48.115,74.873c1.916,0.57,5.052,1.188,8.674,1.908c13.244,2.613,35.415,6.998,50.854,19.164
	c17.363,13.67,21.462,62.061,21.874,67.539L566.724,493.329z"/>
<path d="M387.331,181.201c0.184,10.731,1.502,23.945,12.742,28.915c5.791,2.562,16.308-2.501,16.465,4.622
	c0.172,7.798-16.82,20.565-22.1,24.365c-4.256,3.066-0.154,10.209,4.153,7.105c9.422-6.781,28.663-22.588,28.417-36.071
	c-0.076-4.329-2.452-6.589-6.274-7.591c-4.327-1.138-8.612,1.458-12.806,0.793c-12.375-1.964-12.209-12.824-12.369-22.139
	C395.471,175.913,387.24,175.894,387.331,181.201"/>
<path d="M367.753,266.499c16.94,11.566,37.585,10.213,53.264-2.75c4.085-3.383-1.767-9.174-5.817-5.824
	c-12.915,10.684-29.58,10.826-43.296,1.467C367.519,256.397,363.397,263.528,367.753,266.499"/>
<path d="M349.195,183.932v35.888c0,5.294,8.23,5.307,8.23,0v-35.888C357.425,178.637,349.195,178.628,349.195,183.932"/>
<path d="M429.802,183.932v35.888c0,5.294,8.233,5.307,8.233,0v-35.888C438.035,178.637,429.802,178.628,429.802,183.932"/>
<path d="M551.019,81.374c-2.918-3.937-8.721-4.068-13.566-3.333c-8.788,1.328-17.329,4.255-25.084,8.594
	c9.35-7.289,18.789-14.663,26.287-23.845c3.762-4.611,7.129-10.015,7.192-15.968c0.063-5.952-4.37-12.26-10.319-12.307
	c-2.859-0.023-5.529,1.323-8.062,2.637c-14.856,7.69-29.71,15.376-44.571,23.066c19.559-9.981,41.215-22.996,45.08-44.607
	c0.854-4.771-0.377-11.142-5.157-11.975c-1.718-0.298-3.462,0.263-5.103,0.839c-10.214,3.581-20.07,8.1-30.219,11.853
	c-18.254,6.747-27.682-3.63-47.074-2.049c-23.402,1.905-47.143-0.031-70.243,4.151c-26.825,4.857-52.018,18.194-71.268,37.475
	c-4.811-8.136-11.555-15.125-19.587-20.105c-2.164-1.341-4.871-2.559-7.149-1.428c-2.69,1.333-3.016,5.017-2.661,7.997
	c1.072,8.975,5.083,17.572,11.271,24.158c-8.702-3.858-17.863-6.687-27.226-8.407c-0.92-0.17-1.887-0.325-2.764-0.011
	c-1.598,0.564-2.324,2.538-2.036,4.206c0.294,1.668,1.35,3.089,2.396,4.419c6.846,8.697,14.859,16.446,23.684,23.122
	c-11.006,30.125-11.609,63.996-1.449,94.434l23.689,13.828c30.484-21.029,58.004-46.321,81.625-74.85
	c8.342,16.738,22.601,30.456,39.666,38.109c1.201,0.539,2.744,0.999,3.714,0.111c0.581-0.536,0.726-1.385,0.835-2.168
	c1.516-11.01,2.195-22.133,2.038-33.249c11.966,14.891,26.647,27.593,43.099,37.293c1.647,0.969,3.611,1.936,5.375,1.198
	c0.717-0.299,1.269-0.847,1.727-1.482c-0.649,14.359-0.383,28.755,0.826,43.078c0.266,3.131,0.943,6.813,3.802,8.134
	c4.045,1.868,8.042-2.6,10.174-6.513c15.231-27.955,14.173-44.81,15.608-76.608c19.158-4.687,36.075-18.138,44.691-35.912
	C552.386,90.867,553.923,85.297,551.019,81.374"/>
<path d="M341.605,160.93c7.999-7.857,19.082-9.619,29.112-4.485c4.705,2.41,8.879-4.691,4.159-7.106
	c-13.358-6.835-28.349-4.777-39.092,5.771C332,158.825,337.821,164.645,341.605,160.93"/>
<path d="M422.118,160.056c9.063-5.703,19.787-9.345,29.31-2.588c4.331,3.072,8.444-4.063,4.153-7.106
	c-11.857-8.413-26.211-4.591-37.619,2.587C413.491,155.761,417.613,162.889,422.118,160.056"/>
<path d="M331.134,250.64c5.294,0,5.303-8.23,0-8.23C325.837,242.409,325.829,250.64,331.134,250.64"/>
<path d="M338.556,238.27c5.294,0,5.302-8.231,0-8.231C333.258,230.039,333.25,238.27,338.556,238.27"/>
<path d="M343.089,249.403c5.294,0,5.305-8.231,0-8.231C337.792,241.172,337.784,249.403,343.089,249.403"/>
<path d="M439.974,250.64c5.297,0,5.305-8.23,0-8.23C434.677,242.409,434.668,250.64,439.974,250.64"/>
<path d="M449.452,239.919c5.297,0,5.306-8.232,0-8.232C444.158,231.69,444.149,239.919,449.452,239.919"/>
<path d="M457.284,254.349c5.301,0,5.309-8.23,0-8.23C451.991,246.118,451.982,254.349,457.284,254.349"/>
<path fill="#EBA179" d="M541.974,424.603c-18.914-14.895-48.805-17.574-58.155-20.359c-8.53-2.537-15.631-5.928-21.61-9.838
	c-5.664,8.695-12.244,16.785-19.686,24.012c-15.867,15.408-37.747,27.396-59.43,23.053c-16.763-3.357-30.15-15.74-41.473-28.541
	c-5.74-6.494-11.297-13.299-17.294-19.57c-6.284,4.361-13.907,8.115-23.192,10.885c-9.354,2.785-39.246,5.465-58.156,20.359
	c-16.437,12.943-20.316,64.611-20.316,64.611h169.813h169.808C562.284,489.214,558.408,437.546,541.974,424.603"/>
<path fill="#EBA179" d="M567.536,494.091H217.413l0.395-5.238c0.415-5.506,4.548-54.211,22.157-68.074
	c15.585-12.281,37.865-16.684,51.175-19.32c3.61-0.707,6.724-1.324,8.607-1.885c8.232-2.447,15.568-5.893,21.803-10.217l3.421-2.373
	l2.879,3.004c4.065,4.254,7.95,8.766,11.706,13.125c1.904,2.215,3.799,4.416,5.718,6.58c9.622,10.883,22.726,23.777,38.78,26.994
	c2.664,0.537,5.425,0.803,8.197,0.803c20.565,0,38.197-14.139,46.882-22.572c7.044-6.842,13.436-14.641,18.989-23.178l2.665-4.09
	l4.085,2.674c5.939,3.887,12.78,7,20.336,9.244c1.881,0.561,4.996,1.178,8.604,1.889c13.313,2.633,35.587,7.035,51.172,19.322
	c17.612,13.861,21.743,62.568,22.157,68.074L567.536,494.091z M228.013,484.341h328.93c-1.781-16.387-7.204-47.418-17.984-55.916
	c-13.744-10.82-34.586-14.943-47.038-17.4c-4.008-0.795-7.169-1.424-9.49-2.119c-6.784-2.014-13.087-4.676-18.787-7.924
	c-5.306,7.625-11.255,14.648-17.724,20.93c-9.739,9.455-29.664,25.326-53.668,25.326c-3.416,0-6.817-0.338-10.113-1
	c-18.898-3.785-33.532-18.066-44.166-30.084c-1.947-2.201-3.874-4.443-5.8-6.684c-2.804-3.25-5.677-6.594-8.61-9.801
	c-6.252,3.84-13.31,6.936-21.037,9.234c-2.321,0.691-5.489,1.32-9.496,2.115c-12.453,2.459-33.289,6.58-47.036,17.404
	C235.21,436.923,229.797,467.956,228.013,484.341"/>
</svg>
