<svg xmlns="http://www.w3.org/2000/svg" version="1.1" xmlns:xlink="http://www.w3.org/1999/xlink" xmlns:svgjs="http://svgjs.dev/svgjs" viewBox="0 0 800 800"><defs><radialGradient id="ccclaymoji-grad-dark" r="93%" cx="20%" cy="20%">
      <stop offset="70%" stop-color="hsl(44, 100%, 80%)" stop-opacity="0"></stop>
      <stop offset="97%" stop-color="#cab26a" stop-opacity="1"></stop>
    </radialGradient><radialGradient id="ccclaymoji-grad-light" r="65%" cx="28%" cy="20%">
    <stop offset="0%" stop-color="#ffffca" stop-opacity="0.75"></stop>
    <stop offset="100%" stop-color="hsl(44, 100%, 80%)" stop-opacity="0"></stop>
  </radialGradient><filter id="ccclaymoji-blur" x="-100%" y="-100%" width="400%" height="400%" filterUnits="objectBoundingBox" primitiveUnits="userSpaceOnUse" color-interpolation-filters="sRGB">
	<feGaussianBlur stdDeviation="30" x="0%" y="0%" width="100%" height="100%" in="SourceGraphic" edgeMode="none" result="blur"></feGaussianBlur></filter><filter id="inner-blur" x="-100%" y="-100%" width="400%" height="400%" filterUnits="objectBoundingBox" primitiveUnits="userSpaceOnUse" color-interpolation-filters="sRGB">
	<feGaussianBlur stdDeviation="2" x="0%" y="0%" width="100%" height="100%" in="SourceGraphic" edgeMode="none" result="blur"></feGaussianBlur></filter><filter id="eye-shadow" x="-100%" y="-100%" width="400%" height="400%" filterUnits="objectBoundingBox" primitiveUnits="userSpaceOnUse" color-interpolation-filters="sRGB">
	<feDropShadow stdDeviation="10" dx="10" dy="10" flood-color="#000000" flood-opacity="0.2" x="0%" y="0%" width="100%" height="100%" result="dropShadow"></feDropShadow>
</filter><linearGradient gradientTransform="rotate(-25)" id="eye-light" x1="50%" y1="0%" x2="50%" y2="100%">
      <stop offset="20%" stop-color="#555555" stop-opacity="1"></stop>
      <stop offset="100%" stop-color="black" stop-opacity="0"></stop>
    </linearGradient><linearGradient id="mouth-light" x1="50%" y1="0%" x2="50%" y2="100%">
    <stop offset="0%" stop-color="#ff9667" stop-opacity="1"></stop>
    <stop offset="100%" stop-color="hsl(3, 100%, 51%)" stop-opacity="0"></stop>
  </linearGradient><filter id="mouth-shadow" x="-100%" y="-100%" width="400%" height="400%" filterUnits="objectBoundingBox" primitiveUnits="userSpaceOnUse" color-interpolation-filters="sRGB">
	<feDropShadow stdDeviation="10" dx="10" dy="10" flood-color="#c20000" flood-opacity="0.2" x="0%" y="0%" width="100%" height="100%" result="dropShadow"></feDropShadow>
</filter></defs><g stroke-linecap="round"><path d="M653.5 449.9999934193902C653.5 605.0996295379886 555.0996361185984 730.8315298075304 400 730.8315298075304C244.9010471698113 730.8315298075304 146.5 605.0996295379886 146.5 449.9999934193902C146.5 294.9010405892015 244.9010471698113 169.16845703125 400 169.16845703125C555.0996361185984 169.16845703125 653.5 294.9010405892015 653.5 449.9999934193902Z " fill="#cab26a" opacity="0.25" filter="url(#ccclaymoji-blur)"></path><path d="M653.5 399.999998304579C653.5 563.9372205268012 563.9372222222222 639.0555538601345 400 639.0555538601345C236.06349999999998 639.0555538601345 146.5 563.9372205268012 146.5 399.999998304579C146.5 236.063498304579 236.06349999999998 160.94444274902344 400 160.94444274902344C563.9372222222222 160.94444274902344 653.5 236.063498304579 653.5 399.999998304579Z " fill="hsl(44, 100%, 80%)"></path><path d="M653.5 399.999998304579C653.5 563.9372205268012 563.9372222222222 639.0555538601345 400 639.0555538601345C236.06349999999998 639.0555538601345 146.5 563.9372205268012 146.5 399.999998304579C146.5 236.063498304579 236.06349999999998 160.94444274902344 400 160.94444274902344C563.9372222222222 160.94444274902344 653.5 236.063498304579 653.5 399.999998304579Z " fill="url(#ccclaymoji-grad-dark)"></path><path d="M653.5 399.999998304579C653.5 563.9372205268012 563.9372222222222 639.0555538601345 400 639.0555538601345C236.06349999999998 639.0555538601345 146.5 563.9372205268012 146.5 399.999998304579C146.5 236.063498304579 236.06349999999998 160.94444274902344 400 160.94444274902344C563.9372222222222 160.94444274902344 653.5 236.063498304579 653.5 399.999998304579Z " fill="url(#ccclaymoji-grad-light)"></path><ellipse rx="23.5" ry="25" cx="350" cy="375" fill="black" filter="url(#eye-shadow)"></ellipse><ellipse rx="23.5" ry="25" cx="350" cy="375" fill="url(#eye-light)" filter="url(#inner-blur)"></ellipse><ellipse rx="23.5" ry="25" cx="450" cy="375" fill="black" filter="url(#eye-shadow)"></ellipse><ellipse rx="23.5" ry="25" cx="450" cy="375" fill="url(#eye-light)" filter="url(#inner-blur)"></ellipse><path d="M350 512.5Q400 562.5 450 512.5 " stroke-width="14" stroke="hsl(3, 100%, 51%)" fill="none" filter="url(#mouth-shadow)"></path><path d="M350 512.5Q400 562.5 450 512.5 " stroke-width="4.666666666666667" stroke="url(#mouth-light)" fill="none" filter="url(#inner-blur)"></path></g></svg>